<svg width="10" height="20" viewBox="0 0 10 20" fill="none" xmlns="http://www.w3.org/2000/svg">
<mask id="path-1-inside-1_19_113" fill="white">
<path d="M8.2025 3.17125C6.9625 3.17125 6.61 3.72125 6.61 4.93375V6.935H9.90812L9.58312 10.1769H6.60938V20H2.6625V10.1762H0V6.93438H2.66375V4.98938C2.66375 1.71875 3.975 0 7.65312 0C8.4425 0 9.38688 0.0625 9.95063 0.14125V3.185"/>
</mask>
<path d="M6.61 6.935H5.61V7.935H6.61V6.935ZM9.90812 6.935L10.9031 7.03475L11.0134 5.935H9.90812V6.935ZM9.58312 10.1769V11.1769H10.4879L10.5781 10.2766L9.58312 10.1769ZM6.60938 10.1769V9.17688H5.60938V10.1769H6.60938ZM6.60938 20V21H7.60938V20H6.60938ZM2.6625 20H1.6625V21H2.6625V20ZM2.6625 10.1762H3.6625V9.17625H2.6625V10.1762ZM0 10.1762H-1V11.1762H0V10.1762ZM0 6.93438V5.93438H-1V6.93438H0ZM2.66375 6.93438V7.93438H3.66375V6.93438H2.66375ZM9.95063 0.14125H10.9506V-0.72877L10.089 -0.849134L9.95063 0.14125ZM8.2025 2.17125C7.4644 2.17125 6.69934 2.33186 6.17595 2.95414C5.69122 3.53045 5.61 4.28583 5.61 4.93375H7.61C7.61 4.6722 7.62973 4.49508 7.6577 4.37658C7.68451 4.26302 7.71121 4.23594 7.70655 4.24149C7.66941 4.28564 7.7006 4.17125 8.2025 4.17125V2.17125ZM5.61 4.93375V6.935H7.61V4.93375H5.61ZM6.61 7.935H9.90812V5.935H6.61V7.935ZM8.91311 6.83525L8.58811 10.0771L10.5781 10.2766L10.9031 7.03475L8.91311 6.83525ZM9.58312 9.17688H6.60938V11.1769H9.58312V9.17688ZM5.60938 10.1769V20H7.60938V10.1769H5.60938ZM6.60938 19H2.6625V21H6.60938V19ZM3.6625 20V10.1762H1.6625V20H3.6625ZM2.6625 9.17625H0V11.1762H2.6625V9.17625ZM1 10.1762V6.93438H-1V10.1762H1ZM0 7.93438H2.66375V5.93438H0V7.93438ZM3.66375 6.93438V4.98938H1.66375V6.93438H3.66375ZM3.66375 4.98938C3.66375 3.45723 3.97609 2.51918 4.50804 1.95282C5.02791 1.39933 5.94908 1 7.65312 1V-1C5.67905 -1 4.10553 -0.539958 3.05024 0.583582C2.00704 1.69425 1.66375 3.25089 1.66375 4.98938H3.66375ZM7.65312 1C8.4055 1 9.30272 1.06045 9.81228 1.13163L10.089 -0.849134C9.47103 -0.935454 8.4795 -1 7.65312 -1V1ZM8.95063 0.14125V3.185H10.9506V0.14125H8.95063Z" fill="white" mask="url(#path-1-inside-1_19_113)"/>
</svg>
