<svg width="273" height="41" viewBox="0 0 273 41" fill="none" xmlns="http://www.w3.org/2000/svg">
<path fill-rule="evenodd" clip-rule="evenodd" d="M32.8456 24.0602L34.103 31.919L32.6537 31.3707L32.0061 31.1257L31.6234 31.704C29.8934 34.3179 27.6802 36.3963 25.1782 37.8242C22.6885 39.2452 19.9124 40.0251 17.0428 40.0501C14.1732 40.0272 11.4016 39.2485 8.91644 37.8293C6.41511 36.4009 4.20432 34.3202 2.47508 31.704L2.09141 31.1234L1.44132 31.3707L0 31.919L1.2576 24.0602V24.0568C1.25905 24.0477 1.26345 24.0389 1.26978 24.031C1.27364 24.0263 1.28225 24.0213 1.29407 24.0168C1.30985 24.0108 1.32363 24.0082 1.33356 24.0098C1.34024 24.0108 1.35072 24.0167 1.36495 24.0282L1.36527 24.0278L7.54029 29.0495L6.31115 29.5176L5.22178 29.9324L5.93031 30.8573C6.51955 31.6265 7.16501 32.3347 7.85677 32.9712C8.54969 33.6088 9.28996 34.176 10.0677 34.6625C10.7324 35.0782 11.4115 35.4317 12.1023 35.7215C12.7935 36.0115 13.5066 36.2415 14.2389 36.41L15.3009 36.6545L15.2998 35.5633L15.286 21.5173L15.2851 20.6467H14.4189H10.82C10.7824 20.6467 10.7498 20.6334 10.7278 20.6119C10.71 20.5945 10.6989 20.5706 10.6989 20.5443V18.0255C10.6989 17.999 10.7108 17.9741 10.7296 17.9555C10.7528 17.9326 10.7849 17.9183 10.82 17.9183H14.4189H15.2873L15.286 17.0478L15.2812 13.8634L15.2803 13.2473L14.6997 13.0439C13.3331 12.5652 12.161 11.6921 11.3404 10.5662C10.5529 9.48596 10.089 8.16686 10.089 6.73561C10.089 4.88154 10.8638 3.20221 12.1161 1.9857C13.3771 0.760679 15.1199 0.00202394 17.0447 0C18.9732 0.00202419 20.7166 0.760069 21.9774 1.98416C23.2304 3.2008 24.0049 4.88078 24.0049 6.73562C24.0049 8.16756 23.5417 9.48706 22.7549 10.5673C21.9353 11.6928 20.7647 12.5654 19.3988 13.0439L18.8139 13.2488V13.8634V17.0478V17.915H19.6844L23.2832 17.915V17.9184C23.313 17.9184 23.3399 17.9304 23.3592 17.9497C23.3785 17.969 23.3905 17.9958 23.3905 18.0256H23.3939L23.3939 20.5444H23.3905C23.3905 20.5761 23.3804 20.6018 23.3643 20.6179C23.3463 20.6358 23.3178 20.6468 23.2832 20.6468H19.6844H18.8182L18.8173 21.5173L18.8032 35.5633L18.8021 36.6545L19.8642 36.4101C20.5965 36.2415 21.3096 36.0116 22.0009 35.7216C22.6917 35.4317 23.3709 35.0782 24.0356 34.6625C24.8133 34.176 25.5537 33.6086 26.2466 32.971C26.9383 32.3345 27.5838 31.6264 28.173 30.8573L28.8814 29.9324L27.7921 29.5176L26.5629 29.0495L32.738 24.0279L32.7383 24.0283C32.7525 24.0168 32.7631 24.0108 32.7697 24.0098C32.7797 24.0083 32.7935 24.0108 32.8092 24.0168C32.821 24.0213 32.8297 24.0263 32.8335 24.031C32.8398 24.0389 32.8442 24.0477 32.8456 24.0569V24.0602ZM14.7997 4.46879C14.2336 5.01847 13.8833 5.77738 13.8833 6.61443C13.8833 7.45312 14.233 8.21155 14.7979 8.76091C15.3726 9.31969 16.1672 9.66566 17.0447 9.66756V9.66416C17.9275 9.66416 18.7206 9.32097 19.2913 8.76609C19.8569 8.21605 20.2058 7.45521 20.2058 6.61444V6.61437C20.2058 5.77693 19.8577 5.01821 19.2933 4.46905C18.7223 3.91361 17.9284 3.56969 17.0448 3.56969H17.0447C16.1652 3.56969 15.3716 3.91345 14.7997 4.46879Z" fill="#53739D"/>
<path d="M48.889 18.3416H52.0235V32.1956C51.9203 32.2214 51.7268 32.2859 51.4431 32.3891C51.1593 32.4665 50.8755 32.5052 50.5917 32.5052C50.0757 32.5052 49.6629 32.3504 49.3534 32.0408C49.0438 31.7054 48.889 31.2927 48.889 30.8025V18.3416ZM52.0235 22.908L48.889 22.8693V10.6794C48.889 10.1634 49.0438 9.75063 49.3534 9.44104C49.6629 9.13145 50.0757 8.97666 50.5917 8.97666C50.8755 8.97666 51.1593 9.01536 51.4431 9.09276C51.7268 9.17015 51.9203 9.23465 52.0235 9.28625V22.908ZM50.5917 21.7471V19.1156H62.2399C62.3173 19.2188 62.3947 19.3865 62.4721 19.6187C62.5495 19.8509 62.5882 20.096 62.5882 20.3539C62.5882 20.7667 62.485 21.1021 62.2786 21.3601C62.0722 21.6181 61.7755 21.7471 61.3885 21.7471H50.5917ZM50.5917 32.5052V29.8737H63.633C63.7104 29.9769 63.7878 30.1446 63.8652 30.3768C63.9426 30.5832 63.9813 30.8283 63.9813 31.1121C63.9813 31.5248 63.8781 31.8602 63.6717 32.1182C63.4653 32.3762 63.1686 32.5052 62.7816 32.5052H50.5917ZM50.5917 11.6468V8.97666H63.4395C63.5169 9.07986 63.5943 9.24755 63.6717 9.47974C63.7491 9.71193 63.7878 9.95702 63.7878 10.215C63.7878 10.6278 63.6846 10.9761 63.4782 11.2599C63.2718 11.5178 62.9751 11.6468 62.5882 11.6468H50.5917Z" fill="#0C1117"/>
<path d="M74.4359 22.405L75.0163 22.1341C76.0741 20.7667 77.0673 19.4897 77.9961 18.3029C78.9249 17.1162 79.8794 15.8134 80.8598 14.3944C80.963 14.3686 81.0404 14.3557 81.092 14.3557C81.1436 14.3557 81.2081 14.3557 81.2855 14.3557C81.8272 14.3557 82.2529 14.4847 82.5625 14.7427C82.8721 14.9749 83.0269 15.2974 83.0269 15.7102C83.0269 15.9939 82.9624 16.2648 82.8334 16.5228C82.7302 16.7808 82.5496 17.0775 82.2916 17.4129C81.4145 18.4964 80.5115 19.5929 79.5827 20.7022C78.6798 21.8116 77.7897 22.8951 76.9126 23.9529L75.9064 24.8042C74.9518 26.0684 73.9715 27.3841 72.9653 28.7515C71.9592 30.093 70.9917 31.4087 70.063 32.6987C69.9598 32.6987 69.8695 32.6987 69.7921 32.6987C69.7147 32.6987 69.6244 32.6987 69.5212 32.6987C68.9278 32.6987 68.4763 32.5697 68.1668 32.3117C67.883 32.0537 67.7411 31.7312 67.7411 31.3443C67.7411 31.1379 67.7798 30.9186 67.8572 30.6864C67.9604 30.4542 68.1797 30.1317 68.515 29.7189C69.4438 28.4806 70.4242 27.268 71.4561 26.0813C72.4881 24.8687 73.4813 23.6433 74.4359 22.405ZM76.3321 22.4824L77.0287 22.9467C78.0864 24.3399 79.1442 25.7201 80.2019 27.0874C81.2855 28.429 82.3561 29.7834 83.4139 31.1508C83.3623 31.6409 83.1946 32.0279 82.9108 32.3117C82.627 32.5955 82.2529 32.7374 81.7885 32.7374C81.3758 32.7374 81.0275 32.6342 80.7437 32.4278C80.4599 32.1956 80.1374 31.8473 79.7762 31.3829C79.0023 30.2994 78.1767 29.1514 77.2995 27.9388C76.4482 26.7263 75.6355 25.5911 74.8616 24.5334L73.9715 23.7207C72.8363 22.3534 71.7786 21.0505 70.7982 19.8122C69.8179 18.5738 68.8117 17.2968 67.7798 15.981C67.883 15.4651 68.0765 15.0652 68.3602 14.7814C68.644 14.4976 68.9923 14.3557 69.4051 14.3557C69.8437 14.3557 70.192 14.4718 70.4499 14.704C70.7079 14.9104 70.9659 15.1942 71.2239 15.5554C71.9979 16.5873 72.8105 17.7225 73.6619 18.9608C74.5133 20.1734 75.4033 21.3472 76.3321 22.4824Z" fill="#0C1117"/>
<path d="M104.025 23.5659C104.025 25.475 103.664 27.139 102.941 28.558C102.219 29.9769 101.2 31.0734 99.8842 31.8473C98.5685 32.6213 97.0205 33.0083 95.2404 33.0083C93.4603 33.0083 91.8995 32.6213 90.5579 31.8473C89.2422 31.0734 88.2231 29.9769 87.5008 28.558C86.7784 27.139 86.4172 25.475 86.4172 23.5659C86.4172 21.631 86.7784 19.967 87.5008 18.5738C88.2489 17.1549 89.2809 16.0584 90.5966 15.2845C91.9382 14.5105 93.4861 14.1235 95.2404 14.1235C96.9947 14.1235 98.5298 14.5105 99.8455 15.2845C101.161 16.0584 102.18 17.1549 102.903 18.5738C103.651 19.967 104.025 21.631 104.025 23.5659ZM95.2404 16.6776C93.5119 16.6776 92.1317 17.2968 91.0997 18.5351C90.0935 19.7477 89.5905 21.4246 89.5905 23.5659C89.5905 25.733 90.0806 27.4228 91.061 28.6354C92.0672 29.8479 93.4603 30.4542 95.2404 30.4542C96.9947 30.4542 98.3621 29.8479 99.3424 28.6354C100.349 27.397 100.852 25.7072 100.852 23.5659C100.852 21.4246 100.349 19.7477 99.3424 18.5351C98.3621 17.2968 96.9947 16.6776 95.2404 16.6776Z" fill="#0C1117"/>
<path d="M108.852 22.2889H111.948V27.6292C111.948 28.6612 112.244 29.3964 112.838 29.835C113.431 30.2478 114.244 30.4542 115.276 30.4542C115.714 30.4542 116.205 30.3768 116.746 30.222C117.288 30.0672 117.74 29.8866 118.101 29.6802C118.256 29.835 118.397 30.0285 118.526 30.2607C118.655 30.4929 118.72 30.7638 118.72 31.0734C118.72 31.6409 118.385 32.1053 117.714 32.4665C117.043 32.8277 116.114 33.0083 114.928 33.0083C113.122 33.0083 111.651 32.6084 110.516 31.8086C109.407 31.0089 108.852 29.6802 108.852 27.8227V22.2889ZM110.439 17.5677V15.0136H118.294C118.372 15.1168 118.449 15.2845 118.526 15.5167C118.604 15.7489 118.643 15.9939 118.643 16.2519C118.643 16.6647 118.539 16.9872 118.333 17.2194C118.127 17.4516 117.843 17.5677 117.482 17.5677H110.439ZM111.948 23.4498H108.852V9.44104C108.981 9.38944 109.174 9.33784 109.432 9.28625C109.716 9.20885 110.013 9.17015 110.322 9.17015C110.864 9.17015 111.264 9.28625 111.522 9.51844C111.806 9.72483 111.948 10.0731 111.948 10.5633V23.4498Z" fill="#0C1117"/>
<path d="M122.941 8.97666C122.941 8.43489 123.134 7.98341 123.521 7.62222C123.908 7.23524 124.386 7.04175 124.953 7.04175C125.546 7.04175 126.024 7.23524 126.385 7.62222C126.746 7.98341 126.927 8.43489 126.927 8.97666C126.927 9.51844 126.746 9.98282 126.385 10.3698C126.024 10.731 125.546 10.9116 124.953 10.9116C124.386 10.9116 123.908 10.731 123.521 10.3698C123.134 9.98282 122.941 9.51844 122.941 8.97666ZM123.405 22.2889H126.501V32.4278C126.372 32.4794 126.179 32.531 125.921 32.5826C125.663 32.66 125.379 32.6987 125.069 32.6987C124.527 32.6987 124.115 32.5955 123.831 32.3891C123.547 32.1569 123.405 31.7957 123.405 31.3056V22.2889ZM126.501 23.7981H123.405V14.704C123.534 14.6524 123.728 14.6008 123.986 14.5492C124.269 14.4718 124.566 14.4331 124.876 14.4331C125.417 14.4331 125.817 14.5492 126.075 14.7814C126.359 14.9878 126.501 15.349 126.501 15.865V23.7981Z" fill="#0C1117"/>
<path d="M140.828 16.7163C139.073 16.7163 137.616 17.3097 136.455 18.4964C135.294 19.6832 134.713 21.3859 134.713 23.6046C134.713 25.7975 135.268 27.4873 136.377 28.6741C137.512 29.8608 138.996 30.4542 140.828 30.4542C141.911 30.4542 142.814 30.3123 143.536 30.0285C144.259 29.7189 144.904 29.3706 145.471 28.9837C145.755 29.1385 145.987 29.3319 146.168 29.5641C146.348 29.7963 146.439 30.0801 146.439 30.4155C146.439 31.1379 145.897 31.757 144.813 32.273C143.756 32.7632 142.427 33.0083 140.828 33.0083C139.047 33.0083 137.448 32.6729 136.029 32.0021C134.636 31.3056 133.539 30.2607 132.74 28.8676C131.94 27.4744 131.54 25.7201 131.54 23.6046C131.54 21.5149 131.953 19.7735 132.778 18.3803C133.604 16.9614 134.713 15.9036 136.106 15.2071C137.525 14.4847 139.073 14.1235 140.75 14.1235C142.35 14.1235 143.665 14.3944 144.697 14.9362C145.755 15.478 146.284 16.0971 146.284 16.7937C146.284 17.1033 146.194 17.3742 146.013 17.6064C145.833 17.8386 145.6 18.0192 145.317 18.1481C144.749 17.7612 144.117 17.4258 143.42 17.142C142.75 16.8582 141.885 16.7163 140.828 16.7163Z" fill="#0C1117"/>
<path d="M172.368 11.5694C172.368 11.9048 172.252 12.2144 172.02 12.4982C171.814 12.7562 171.568 12.9497 171.285 13.0787C170.64 12.6143 169.853 12.1757 168.924 11.7629C168.021 11.3502 166.847 11.1438 165.403 11.1438C163.829 11.1438 162.41 11.5049 161.146 12.2273C159.907 12.9497 158.914 14.0332 158.166 15.478C157.444 16.8969 157.082 18.6641 157.082 20.7796C157.082 23.9529 157.856 26.3393 159.404 27.9388C160.978 29.5383 163.016 30.3381 165.519 30.3381C166.86 30.3381 168.034 30.1446 169.04 29.7576C170.046 29.3706 170.872 28.9321 171.517 28.4419C171.775 28.5451 172.02 28.7386 172.252 29.0224C172.484 29.2803 172.6 29.5899 172.6 29.9511C172.6 30.2091 172.523 30.4671 172.368 30.7251C172.239 30.9573 172.007 31.1895 171.672 31.4216C171.078 31.8344 170.266 32.1956 169.234 32.5052C168.202 32.8406 166.886 33.0083 165.286 33.0083C163.145 33.0083 161.197 32.5568 159.443 31.6538C157.715 30.7251 156.347 29.3577 155.341 27.5518C154.335 25.7459 153.832 23.4885 153.832 20.7796C153.832 18.0708 154.348 15.8005 155.38 13.9687C156.437 12.137 157.818 10.7697 159.52 9.86672C161.249 8.93796 163.132 8.47358 165.17 8.47358C166.589 8.47358 167.841 8.62838 168.924 8.93796C170.008 9.24755 170.846 9.64743 171.439 10.1376C172.059 10.602 172.368 11.0793 172.368 11.5694Z" fill="#53739D"/>
<path d="M180.302 17.9547V24.069H177.206V18.1868C177.206 17.5935 177.309 17.1291 177.515 16.7937C177.748 16.4325 178.122 16.0842 178.638 15.7489C179.308 15.3103 180.224 14.9362 181.385 14.6266C182.546 14.2912 183.836 14.1235 185.255 14.1235C187.319 14.1235 188.351 14.6395 188.351 15.6715C188.351 15.9294 188.312 16.1745 188.235 16.4067C188.157 16.6131 188.054 16.7937 187.925 16.9485C187.667 16.8969 187.332 16.8453 186.919 16.7937C186.506 16.7421 186.094 16.7163 185.681 16.7163C184.494 16.7163 183.449 16.8453 182.546 17.1033C181.643 17.3355 180.895 17.6193 180.302 17.9547ZM177.206 22.2889L180.302 22.7532V32.4278C180.173 32.4794 179.979 32.531 179.721 32.5826C179.463 32.66 179.179 32.6987 178.87 32.6987C178.328 32.6987 177.915 32.5955 177.632 32.3891C177.348 32.1569 177.206 31.7957 177.206 31.3056V22.2889Z" fill="#53739D"/>
<path d="M191.982 25.9652V22.4437H195.078V25.8104C195.078 27.4615 195.517 28.6483 196.394 29.3706C197.271 30.093 198.484 30.4542 200.031 30.4542C201.063 30.4542 201.941 30.351 202.663 30.1446C203.385 29.9124 203.953 29.6802 204.366 29.448V22.4437H207.462V29.3319C207.462 29.8737 207.384 30.3123 207.229 30.6477C207.1 30.9573 206.765 31.2669 206.223 31.5764C205.656 31.9118 204.843 32.2343 203.785 32.5439C202.727 32.8535 201.463 33.0083 199.993 33.0083C198.29 33.0083 196.832 32.7632 195.62 32.273C194.433 31.757 193.53 30.9831 192.911 29.9511C192.292 28.8934 191.982 27.5647 191.982 25.9652ZM207.462 24.456H204.366V14.704C204.495 14.6524 204.688 14.6008 204.946 14.5492C205.23 14.4718 205.514 14.4331 205.797 14.4331C206.365 14.4331 206.778 14.5492 207.036 14.7814C207.32 14.9878 207.462 15.349 207.462 15.865V24.456ZM195.078 24.456H191.982V14.704C192.111 14.6524 192.305 14.6008 192.563 14.5492C192.846 14.4718 193.143 14.4331 193.453 14.4331C193.995 14.4331 194.394 14.5492 194.652 14.7814C194.936 14.9878 195.078 15.349 195.078 15.865V24.456Z" fill="#53739D"/>
<path d="M212.988 8.97666C212.988 8.43489 213.181 7.98341 213.568 7.62222C213.955 7.23524 214.433 7.04175 215 7.04175C215.593 7.04175 216.071 7.23524 216.432 7.62222C216.793 7.98341 216.974 8.43489 216.974 8.97666C216.974 9.51844 216.793 9.98282 216.432 10.3698C216.071 10.731 215.593 10.9116 215 10.9116C214.433 10.9116 213.955 10.731 213.568 10.3698C213.181 9.98282 212.988 9.51844 212.988 8.97666ZM213.452 22.2889H216.548V32.4278C216.419 32.4794 216.226 32.531 215.968 32.5826C215.71 32.66 215.426 32.6987 215.116 32.6987C214.574 32.6987 214.162 32.5955 213.878 32.3891C213.594 32.1569 213.452 31.7957 213.452 31.3056V22.2889ZM216.548 23.7981H213.452V14.704C213.581 14.6524 213.775 14.6008 214.033 14.5492C214.316 14.4718 214.613 14.4331 214.923 14.4331C215.465 14.4331 215.864 14.5492 216.122 14.7814C216.406 14.9878 216.548 15.349 216.548 15.865V23.7981Z" fill="#53739D"/>
<path d="M235.209 27.7453C235.209 29.3964 234.603 30.6864 233.39 31.6151C232.177 32.5439 230.423 33.0083 228.127 33.0083C226.166 33.0083 224.567 32.7116 223.328 32.1182C222.09 31.499 221.471 30.8283 221.471 30.1059C221.471 29.7963 221.548 29.4996 221.703 29.2158C221.884 28.9063 222.142 28.6612 222.477 28.4806C223.174 28.9708 223.986 29.4222 224.915 29.835C225.844 30.2478 226.902 30.4542 228.088 30.4542C230.771 30.4542 232.113 29.5512 232.113 27.7453C232.113 26.9971 231.881 26.3909 231.416 25.9265C230.978 25.4363 230.32 25.088 229.443 24.8816L226.231 24.0303C224.657 23.6433 223.509 23.0499 222.787 22.2502C222.064 21.4246 221.703 20.4055 221.703 19.193C221.703 17.8257 222.258 16.6389 223.367 15.6328C224.476 14.6266 226.166 14.1235 228.437 14.1235C229.649 14.1235 230.707 14.2525 231.61 14.5105C232.513 14.7427 233.209 15.0652 233.7 15.478C234.216 15.865 234.474 16.2906 234.474 16.755C234.474 17.0904 234.383 17.3871 234.203 17.6451C234.048 17.9031 233.829 18.0965 233.545 18.2255C233.235 18.0192 232.835 17.7999 232.345 17.5677C231.881 17.3097 231.326 17.1033 230.681 16.9485C230.036 16.7679 229.327 16.6776 228.553 16.6776C227.418 16.6776 226.502 16.8969 225.805 17.3355C225.109 17.7741 224.76 18.3932 224.76 19.193C224.76 19.7606 224.954 20.2637 225.341 20.7022C225.754 21.115 226.398 21.4246 227.276 21.631L229.946 22.2889C231.7 22.7016 233.016 23.3595 233.893 24.2625C234.77 25.1396 235.209 26.3006 235.209 27.7453Z" fill="#53739D"/>
<path d="M241.213 25.5395L241.058 23.1015L252.745 21.5149C252.642 20.096 252.151 18.935 251.274 18.0321C250.397 17.1033 249.185 16.6389 247.637 16.6389C246.037 16.6389 244.708 17.2194 243.651 18.3803C242.619 19.5155 242.103 21.1537 242.103 23.295V24.1464C242.283 26.2103 242.954 27.784 244.115 28.8676C245.302 29.9253 246.914 30.4542 248.952 30.4542C250.036 30.4542 251.016 30.2736 251.893 29.9124C252.771 29.5512 253.467 29.1642 253.983 28.7515C254.267 28.9321 254.486 29.1514 254.641 29.4093C254.822 29.6415 254.912 29.9124 254.912 30.222C254.912 30.7122 254.628 31.1766 254.061 31.6151C253.519 32.0279 252.784 32.3633 251.855 32.6213C250.952 32.8793 249.933 33.0083 248.798 33.0083C246.811 33.0083 245.083 32.6471 243.612 31.9247C242.167 31.2024 241.045 30.1317 240.245 28.7128C239.471 27.268 239.084 25.5137 239.084 23.4498C239.084 21.9793 239.291 20.6764 239.704 19.5413C240.142 18.3803 240.735 17.4 241.484 16.6002C242.258 15.8005 243.173 15.1942 244.231 14.7814C245.289 14.3428 246.437 14.1235 247.675 14.1235C249.249 14.1235 250.629 14.4589 251.816 15.1297C253.029 15.8005 253.97 16.7421 254.641 17.9547C255.338 19.1414 255.686 20.5087 255.686 22.0567C255.686 22.6242 255.557 23.037 255.299 23.295C255.041 23.5272 254.68 23.6691 254.215 23.7207L241.213 25.5395Z" fill="#53739D"/>
<path d="M273 27.7453C273 29.3964 272.394 30.6864 271.181 31.6151C269.969 32.5439 268.214 33.0083 265.918 33.0083C263.958 33.0083 262.358 32.7116 261.12 32.1182C259.881 31.499 259.262 30.8283 259.262 30.1059C259.262 29.7963 259.34 29.4996 259.494 29.2158C259.675 28.9063 259.933 28.6612 260.268 28.4806C260.965 28.9708 261.778 29.4222 262.706 29.835C263.635 30.2478 264.693 30.4542 265.88 30.4542C268.563 30.4542 269.904 29.5512 269.904 27.7453C269.904 26.9971 269.672 26.3909 269.208 25.9265C268.769 25.4363 268.111 25.088 267.234 24.8816L264.022 24.0303C262.448 23.6433 261.3 23.0499 260.578 22.2502C259.856 21.4246 259.494 20.4055 259.494 19.193C259.494 17.8257 260.049 16.6389 261.158 15.6328C262.268 14.6266 263.958 14.1235 266.228 14.1235C267.44 14.1235 268.498 14.2525 269.401 14.5105C270.304 14.7427 271.001 15.0652 271.491 15.478C272.007 15.865 272.265 16.2906 272.265 16.755C272.265 17.0904 272.174 17.3871 271.994 17.6451C271.839 17.9031 271.62 18.0965 271.336 18.2255C271.026 18.0192 270.627 17.7999 270.136 17.5677C269.672 17.3097 269.117 17.1033 268.472 16.9485C267.827 16.7679 267.118 16.6776 266.344 16.6776C265.209 16.6776 264.293 16.8969 263.596 17.3355C262.9 17.7741 262.552 18.3932 262.552 19.193C262.552 19.7606 262.745 20.2637 263.132 20.7022C263.545 21.115 264.19 21.4246 265.067 21.631L267.737 22.2889C269.491 22.7016 270.807 23.3595 271.684 24.2625C272.561 25.1396 273 26.3006 273 27.7453Z" fill="#53739D"/>
</svg>
