<svg width="25" height="20" viewBox="0 0 25 20" fill="none" xmlns="http://www.w3.org/2000/svg">
<mask id="path-1-inside-1_19_115" fill="white">
<path d="M7.74064 20C17.029 20 22.1093 12.3046 22.1093 5.63136C22.1093 5.41272 22.1093 5.19513 22.0946 4.97755C23.0828 4.26299 23.9359 3.37821 24.614 2.36461C23.6924 2.77302 22.7147 3.04086 21.7135 3.15919C22.7677 2.52808 23.5567 1.53547 23.9337 0.366069C22.9424 0.954277 21.8579 1.36881 20.7269 1.59177C19.9655 0.782173 18.9585 0.246084 17.8618 0.0664612C16.765 -0.113162 15.6396 0.0736943 14.6597 0.598116C13.6798 1.12254 12.9001 1.95529 12.4411 2.9675C11.9822 3.97972 11.8697 5.11497 12.121 6.19758C10.1132 6.09691 8.14904 5.57514 6.356 4.66614C4.56296 3.75714 2.98112 2.48123 1.71318 0.921231C1.06739 2.03295 0.869592 3.34899 1.16005 4.60142C1.4505 5.85386 2.20737 6.9485 3.27655 7.6625C2.47292 7.63867 1.68681 7.42188 0.984562 7.03042V7.09436C0.984868 8.26031 1.38848 9.39025 2.12693 10.2925C2.86538 11.1948 3.89321 11.8139 5.03607 12.0448C4.29259 12.2475 3.51253 12.2772 2.75581 12.1314C3.0785 13.1348 3.70675 14.0123 4.5527 14.6411C5.39864 15.2699 6.41996 15.6186 7.47382 15.6384C5.68559 17.0438 3.47655 17.8067 1.20215 17.8044C0.800351 17.8037 0.398947 17.7793 0 17.7316C2.30943 19.2136 4.99657 19.9997 7.74064 19.9961"/>
</mask>
<path d="M22.0946 4.97755L21.5086 4.1672L21.0595 4.49198L21.0968 5.045L22.0946 4.97755ZM24.614 2.36461L25.4452 2.92067L27.3643 0.0521538L24.2089 1.45035L24.614 2.36461ZM21.7135 3.15919L21.1999 2.30119L21.8309 4.15227L21.7135 3.15919ZM23.9337 0.366069L24.8855 0.672888L25.6964 -1.84263L23.4234 -0.493932L23.9337 0.366069ZM20.7269 1.59177L19.9985 2.27687L20.3775 2.67991L20.9204 2.57289L20.7269 1.59177ZM12.121 6.19758L12.0709 7.19632L13.3948 7.2627L13.0951 5.97148L12.121 6.19758ZM1.71318 0.921231L2.48918 0.290504L1.57584 -0.833211L0.848478 0.418939L1.71318 0.921231ZM3.27655 7.6625L3.24691 8.66206L6.72863 8.7653L3.8319 6.83088L3.27655 7.6625ZM0.984562 7.03042L1.47146 6.15696L-0.0154383 5.3281V7.03042H0.984562ZM0.984562 7.09436H-0.0154383L-0.0154382 7.09462L0.984562 7.09436ZM5.03607 12.0448L5.29918 13.0095L5.23407 11.0646L5.03607 12.0448ZM2.75581 12.1314L2.94496 11.1494L1.28688 10.8301L1.80383 12.4375L2.75581 12.1314ZM7.47382 15.6384L8.09174 16.4247L10.2973 14.6913L7.4926 14.6386L7.47382 15.6384ZM1.20215 17.8044L1.20021 18.8044L1.20114 18.8044L1.20215 17.8044ZM0 17.7316L0.118882 16.7387L-0.540089 18.5732L0 17.7316ZM7.74064 21C17.6961 21 23.1093 12.7347 23.1093 5.63136H21.1093C21.1093 11.8746 16.3619 19 7.74064 19V21ZM23.1093 5.63136C23.1093 5.41835 23.1097 5.16698 23.0923 4.91009L21.0968 5.045C21.1089 5.22329 21.1093 5.40709 21.1093 5.63136H23.1093ZM22.6805 5.7879C23.7649 5.0038 24.7011 4.03291 25.4452 2.92067L23.7829 1.80856C23.1708 2.72351 22.4007 3.52218 21.5086 4.1672L22.6805 5.7879ZM24.2089 1.45035C23.3787 1.81825 22.498 2.05951 21.5962 2.1661L21.8309 4.15227C22.9314 4.02221 24.0061 3.7278 25.0192 3.27887L24.2089 1.45035ZM22.2272 4.01719C23.4894 3.26154 24.4341 2.07305 24.8855 0.672888L22.9819 0.0592506C22.6793 0.997888 22.046 1.79462 21.1999 2.30119L22.2272 4.01719ZM23.4234 -0.493932C22.53 0.0361547 21.5527 0.409725 20.5335 0.610658L20.9204 2.57289C22.163 2.32789 23.3547 1.8724 24.444 1.22607L23.4234 -0.493932ZM21.4554 0.906678C20.5434 -0.063087 19.3371 -0.705233 18.0234 -0.920392L17.7001 1.05331C18.5799 1.1974 19.3877 1.62743 19.9985 2.27687L21.4554 0.906678ZM18.0234 -0.920392C16.7096 -1.13555 15.3616 -0.911728 14.1878 -0.283558L15.1315 1.47979C15.9176 1.05912 16.8203 0.909227 17.7001 1.05331L18.0234 -0.920392ZM14.1878 -0.283558C13.0141 0.344612 12.0801 1.34211 11.5304 2.55457L13.3519 3.38043C13.72 2.56846 14.3455 1.90046 15.1315 1.47979L14.1878 -0.283558ZM11.5304 2.55457C10.9807 3.76704 10.8459 5.12688 11.1469 6.42367L13.0951 5.97148C12.8935 5.10305 12.9838 4.19239 13.3519 3.38043L11.5304 2.55457ZM12.171 5.19883C10.3033 5.10519 8.47615 4.61981 6.80818 3.77421L5.90383 5.55807C7.82193 6.53048 9.92309 7.08864 12.0709 7.19632L12.171 5.19883ZM6.80818 3.77421C5.1402 2.92861 3.66869 1.74169 2.48918 0.290504L0.937172 1.55196C2.29356 3.22076 3.98573 4.58567 5.90383 5.55807L6.80818 3.77421ZM0.848478 0.418939C0.0749135 1.75063 -0.162027 3.32709 0.185898 4.82734L2.13419 4.37551C1.90121 3.3709 2.05987 2.31526 2.57787 1.42352L0.848478 0.418939ZM0.185898 4.82734C0.533824 6.32759 1.44046 7.63884 2.7212 8.49412L3.8319 6.83088C2.97428 6.25817 2.36717 5.38012 2.13419 4.37551L0.185898 4.82734ZM3.30619 6.66294C2.66289 6.64386 2.03361 6.47032 1.47146 6.15696L0.497662 7.90388C1.34001 8.37344 2.28295 8.63348 3.24691 8.66206L3.30619 6.66294ZM-0.0154383 7.03042V7.09436H1.98456V7.03042H-0.0154383ZM-0.0154382 7.09462C-0.0150709 8.49137 0.468433 9.84499 1.35306 10.9259L2.90079 9.65919C2.30852 8.93551 1.98481 8.02924 1.98456 7.09409L-0.0154382 7.09462ZM1.35306 10.9259C2.23769 12.0068 3.46898 12.7484 4.83807 13.025L5.23407 11.0646C4.31744 10.8794 3.49307 10.3829 2.90079 9.65919L1.35306 10.9259ZM4.77296 11.08C4.17694 11.2425 3.5516 11.2663 2.94496 11.1494L2.56666 13.1133C3.47347 13.288 4.40824 13.2525 5.29918 13.0095L4.77296 11.08ZM1.80383 12.4375C2.19035 13.6395 2.94286 14.6905 3.95613 15.4437L5.14926 13.8386C4.47065 13.3341 3.96666 12.6302 3.7078 11.8252L1.80383 12.4375ZM3.95613 15.4437C4.9694 16.1969 6.19274 16.6145 7.45505 16.6382L7.4926 14.6386C6.64719 14.6227 5.82788 14.343 5.14926 13.8386L3.95613 15.4437ZM6.8559 14.8522C5.24415 16.1189 3.25311 16.8065 1.20316 16.8044L1.20114 18.8044C3.69999 18.807 6.12704 17.9687 8.09174 16.4247L6.8559 14.8522ZM1.20409 16.8044C0.841375 16.8037 0.479019 16.7818 0.118882 16.7387L-0.118882 18.7245C0.318875 18.7769 0.759326 18.8036 1.20021 18.8044L1.20409 16.8044ZM-0.540089 18.5732C1.93087 20.1589 4.80597 21 7.74197 20.9961L7.7393 18.9961C5.18717 18.9995 2.68798 18.2683 0.540089 16.89L-0.540089 18.5732Z" fill="white" mask="url(#path-1-inside-1_19_115)"/>
</svg>
