<svg width="26" height="20" viewBox="0 0 26 20" fill="none" xmlns="http://www.w3.org/2000/svg">
<g clip-path="url(#clip0_19_109)">
<path d="M25.5 10.0005L25.5 10.0014L25.5 10.0026L25.5 10.0112L25.4999 10.046C25.4997 10.0768 25.4995 10.1225 25.4989 10.1816C25.4979 10.2998 25.4958 10.4714 25.4915 10.6838C25.483 11.1089 25.4659 11.6963 25.4319 12.3457C25.363 13.6597 25.2266 15.1749 24.9671 16.1268L24.967 16.1274C24.8402 16.5946 24.5934 17.0206 24.2511 17.3629C23.9088 17.7052 23.4829 17.952 23.0156 18.0788L23.0149 18.0789C22.5629 18.2022 21.7221 18.3034 20.6722 18.3812C19.6367 18.4579 18.4396 18.5092 17.3009 18.5436C16.163 18.5779 15.0874 18.595 14.296 18.6036C13.9004 18.6079 13.5761 18.6101 13.3508 18.6111C13.2381 18.6117 13.1503 18.6119 13.0906 18.6121L13.0228 18.6122L13.0056 18.6122L13.0013 18.6122H13.0003H13.0001L13 19.1122L12.9999 18.6122H12.9997H12.9987L12.9944 18.6122L12.9772 18.6122L12.9094 18.6121C12.8497 18.6119 12.7619 18.6117 12.6492 18.6111C12.4239 18.61 12.0996 18.6079 11.704 18.6036C10.9127 18.595 9.83707 18.5778 8.69918 18.5435C7.56047 18.5092 6.36345 18.4577 5.32799 18.381C4.27815 18.3032 3.43746 18.2019 2.98561 18.0786L2.98479 18.0783C2.51756 17.9516 2.09161 17.7048 1.74929 17.3625C1.40696 17.0202 1.16017 16.5942 1.03344 16.127C0.77352 15.1663 0.637102 13.6507 0.56817 12.3393C0.534094 11.691 0.517036 11.1052 0.508506 10.6815C0.504244 10.4697 0.502117 10.2987 0.501056 10.1809C0.500525 10.122 0.500261 10.0765 0.50013 10.0458L0.500016 10.0111L0.500002 10.0026L0.5 10.0005L0.5 10.0001V10V9.99999V9.99994L0.5 9.99948L0.500002 9.99744L0.500015 9.98884L0.500126 9.95417C0.500254 9.92348 0.50051 9.8779 0.501024 9.81901C0.502054 9.70121 0.504117 9.5302 0.508252 9.3185C0.516526 8.89488 0.533072 8.30944 0.566127 7.66199C0.63296 6.35293 0.765217 4.84137 1.01718 3.88779C1.14404 3.42113 1.39067 2.99573 1.73263 2.65376C2.07496 2.31144 2.5009 2.06465 2.96814 1.93791L2.96892 1.9377C3.42129 1.81421 4.26243 1.71202 5.31229 1.63268C6.34789 1.55441 7.54501 1.50098 8.68377 1.4646C9.82172 1.42824 10.8973 1.40904 11.6887 1.39893C12.0843 1.39388 12.4087 1.3911 12.634 1.38958C12.7466 1.38882 12.8345 1.38838 12.8941 1.38813L12.9619 1.38788L12.9791 1.38783L12.9834 1.38782L12.9838 1.38782H12.9841L12.9851 1.38782L12.9894 1.38782L13.0066 1.38783L13.0744 1.38795C13.134 1.38808 13.2219 1.38835 13.3345 1.38889C13.5598 1.38996 13.8841 1.39211 14.2797 1.3964C15.071 1.40499 16.1465 1.42217 17.2844 1.4565C18.423 1.49085 19.62 1.54227 20.6554 1.61902C21.7052 1.69684 22.5459 1.79807 22.9977 1.92144L22.9985 1.92166C23.4658 2.0484 23.8917 2.29519 24.2341 2.63751C24.5764 2.97984 24.8232 3.40578 24.9499 3.87302C25.2102 4.83453 25.3507 6.35087 25.4237 7.66227C25.4599 8.31065 25.4789 8.89652 25.489 9.32033C25.494 9.53213 25.4968 9.70317 25.4983 9.82098C25.499 9.87987 25.4995 9.92544 25.4997 9.95613L25.4999 9.99079L25.5 9.99937L25.5 9.99999V10.0001V10.0005Z" stroke="white"/>
<path d="M10.8964 6.96215L16.1409 9.99961L10.8967 13.0371L10.8964 6.96215Z" stroke="white"/>
</g>
<defs>
<clipPath id="clip0_19_109">
<rect width="26" height="20" fill="white"/>
</clipPath>
</defs>
</svg>
